<?xml version="1.0" encoding="UTF-8" standalone="no"?>
<svg
   xmlns:dc="http://purl.org/dc/elements/1.1/"
   xmlns:cc="http://creativecommons.org/ns#"
   xmlns:rdf="http://www.w3.org/1999/02/22-rdf-syntax-ns#"
   xmlns:svg="http://www.w3.org/2000/svg"
   xmlns="http://www.w3.org/2000/svg"
   xmlns:sodipodi="http://sodipodi.sourceforge.net/DTD/sodipodi-0.dtd"
   xmlns:inkscape="http://www.inkscape.org/namespaces/inkscape"
   viewBox="0 0 55 54"
   width="100"
   height="100"
   fill-rule="evenodd"
   clip-rule="evenodd"
   stroke-linejoin="round"
   stroke-miterlimit="1.414"
   version="1.1"
   id="svg1522"
   sodipodi:docname="raui.svg"
   inkscape:version="0.92.2 2405546, 2018-03-11"
   inkscape:export-filename="/home/chris/development/js/ractive-materialish/demo/favicon.png"
   inkscape:export-xdpi="30.73"
   inkscape:export-ydpi="30.73">
  <metadata
     id="metadata1528">
    <rdf:RDF>
      <cc:Work
         rdf:about="">
        <dc:format>image/svg+xml</dc:format>
        <dc:type
           rdf:resource="http://purl.org/dc/dcmitype/StillImage" />
        <dc:title />
      </cc:Work>
    </rdf:RDF>
  </metadata>
  <defs
     id="defs1526" />
  <sodipodi:namedview
     pagecolor="#ffffff"
     bordercolor="#666666"
     borderopacity="1"
     objecttolerance="10"
     gridtolerance="10"
     guidetolerance="10"
     inkscape:pageopacity="0"
     inkscape:pageshadow="2"
     inkscape:window-width="1800"
     inkscape:window-height="1141"
     id="namedview1524"
     showgrid="false"
     inkscape:zoom="2.1213203"
     inkscape:cx="28.690012"
     inkscape:cy="-17.841896"
     inkscape:window-x="0"
     inkscape:window-y="0"
     inkscape:window-maximized="1"
     inkscape:current-layer="svg1522" />
  <clipPath
     id="a">
    <path
       d="M0 0h54.047v53.64H0z"
       id="path1513" />
  </clipPath>
  <path
     style="opacity:1;fill:#ffffff;fill-opacity:1;stroke:#222222;stroke-width:1.60194278;stroke-miterlimit:1.41400003;stroke-dasharray:none;stroke-opacity:1"
     d="M 7.5867547,9.6837647 C 7.5330882,11.437415 4.18293,9.1608166 4.9931052,11.149095 c -1.2031388,1.01835 -2.1837005,0.290837 -2.4438143,2.054928 -0.8103057,1.693578 -1.70751073,3.528978 -1.74831972,5.268749 0.22232812,0.982009 1.34037102,1.922667 0.74505622,3.217445 0.2187751,0.276898 0.4405264,0.552336 0.6639407,0.826664 -0.1188971,-0.09398 -0.061352,0.188997 0.03205,0.03933 1.091949,1.33837 2.2478792,2.632309 3.5566047,3.751705 0.373269,1.710928 2.4858457,0.520849 3.3885974,2.028175 1.8639758,-0.330656 3.8553418,3.003797 5.1955578,0.676986 1.01938,-1.889347 4.767162,-0.247372 4.18949,1.913354 -0.03533,1.958403 1.371359,3.407542 1.242639,5.411151 -0.09771,1.524089 0.801487,3.437648 -0.521703,4.547975 1.828856,0.675219 0.137548,2.946408 2.050638,3.136003 1.001199,-1.080009 0.65692,1.58859 1.738072,1.087353 0.964898,-0.0051 2.709349,0.792653 3.870984,-0.08257 1.125833,-0.164248 2.498624,-0.316181 3.912612,-0.212285 1.541371,-0.844323 3.028934,-1.549563 4.611244,-2.307018 0.464385,-0.252065 1.021596,-0.606659 1.603769,-0.892087 -0.06436,0.1207 0.200512,0.02261 0.0097,-0.0051 0.98731,-0.482495 2.04566,-0.76289 2.845915,-0.0017 0.946002,-0.07251 2.066711,-0.487434 2.852684,0 1.312464,-0.499966 1.966099,-1.86147 3.58089,-1.82083 0.923442,-0.821239 2.709336,-0.06765 3.366298,-1.136916 0.01919,0.0088 0.03805,-0.03106 0.03617,-0.06117 0.04402,-0.08172 0.08232,-0.172507 0.113654,-0.274891 0.15369,-1.873125 2.566437,-1.331502 3.162278,-2.891346 0.876066,-1.160137 1.063203,-2.430431 1.039445,-3.904182 0.379351,-0.614039 -0.439534,-1.19038 0.111505,-1.563998 -0.971285,-1.352436 -1.610284,-2.366383 -3.225542,-2.849381 -1.483237,-0.252057 -2.826243,-0.364336 -3.963498,-1.470279 -1.003474,-1.214633 -2.829782,0.877696 -3.324334,-1.183827 -0.863475,-0.137499 -0.249282,-2.132976 -1.735763,-1.706688 0.193093,-0.951734 -0.990494,0.50469 -1.449801,-0.217243 -0.286995,-0.733631 -2.026378,-1.836339 -2.732751,-2.607034 -1.213122,-0.30423 -0.923434,-1.648791 -2.111924,-1.543796 0.09079,-1.586678 -1.709139,-1.406605 -2.516832,-1.713461 -1.083271,0.71678 -1.548113,-1.147248 -2.852686,-0.182054 -1.249795,-0.214452 -2.114879,-0.388477 -3.277416,0.242681 -1.690862,0.174554 -2.437394,2.000631 -4.12506,2.106478 -1.771781,-0.006 -3.177554,1.533073 -5.033994,1.275839 -0.483259,1.426392 -1.180436,-1.083869 -1.826419,-1.379329 -0.469306,-2.008221 -2.880179,-3.031809 -2.670474,-5.28028 -0.863419,0.275541 -1.085232,-1.921594 -1.917815,-1.247099 C 10.975122,10.584663 8.8618038,10.998751 8.2543132,9.7440427 l -0.3584844,-0.00878 z"
     id="rect3289"
     inkscape:connector-curvature="0"
     sodipodi:nodetypes="ccccccccccccccccccccccccccccccccccccccccccccccc" />
  <path
     style="fill:#077eef;fill-opacity:0.90196079;stroke:#ffffff;stroke-width:1.65;stroke-miterlimit:1.41400003;stroke-dasharray:none;stroke-opacity:0.09803922;opacity:1"
     inkscape:connector-curvature="0"
     id="path1518-5"
     d="m 15.081601,28.402251 h 8.153277 c -0.0022,2.738642 -0.0011,18.752114 -0.0011,18.752114 0,0 -0.230433,1.156412 -1.221187,1.211629 h -5.709867 a 1.2742814,1.2742814 0 0 1 -1.221187,-1.211629 z m 18.199927,6.507332 6.498834,11.655427 c 0,0 0.253794,0.557496 0.07328,1.024733 -0.176287,0.455556 -0.640327,0.749702 -1.139422,0.776251 h -6.447872 c -0.671121,-0.0361 -0.759258,-0.107273 -1.0842,-0.654131 L 26.178463,38.125019 A 27.921632,27.921632 0 0 0 33.28152,34.909583 Z M 26.053165,6.5217758 c 4.448305,1.0831396 8.445301,3.2940185 10.574413,7.4364952 2.496532,5.161901 1.72665,10.463973 -0.456618,14.03621 -2.563428,4.195573 -7.051024,6.291766 -10.114609,7.230484 0.0011,-2.668555 0.0041,-5.336052 0.0063,-8.004612 1.634268,-0.879251 2.940407,-2.271406 3.450119,-4.104244 0.955709,-3.438439 -0.359984,-7.366413 -3.445869,-9.065452 -0.0022,-2.508213 -0.0063,-5.0185473 -0.01387,-7.5288812 z M 15.081601,25.597771 V 6.8732643 c 0.05947,-1.0767684 1.427197,-1.2413611 2.989253,-1.2392381 1.696917,0.00755 3.437375,0.1114946 5.151284,0.3514885 0.0075,2.3829073 0.01162,19.6122563 0.01162,19.6122563 z"
     inkscape:export-filename="/home/chris/development/html/ractivejs.github.io/src/docs/playground/assets/path1518.png"
     inkscape:export-xdpi="15.749434"
     inkscape:export-ydpi="15.749434" />
</svg>
